<svg version="1.1" id="Layer_1" xmlns="http://www.w3.org/2000/svg" xmlns:xlink="http://www.w3.org/1999/xlink" x="0px" y="0px"
	 width="100%" viewBox="0 0 707 353" enable-background="new 0 0 707 353" xml:space="preserve">
<path fill="#000000" opacity="1.000000" stroke="none" 
	d="
M427.000000,354.000000 
	C284.700104,354.000000 142.900192,354.000000 1.050140,354.000000 
	C1.050140,236.394516 1.050140,118.788994 1.050140,1.091737 
	C236.549942,1.091737 472.099915,1.091737 707.824951,1.091737 
	C707.824951,118.666458 707.824951,236.333206 707.824951,354.000000 
	C614.455627,354.000000 520.977783,354.000000 427.000000,354.000000 
M392.765442,199.696381 
	C392.854340,188.494019 392.968079,177.291702 392.978485,166.089264 
	C392.979218,165.307648 392.213531,164.525314 391.945709,162.983185 
	C391.191040,160.342056 391.219788,156.966751 389.549133,155.184097 
	C381.355164,146.440903 363.301453,144.418625 355.408508,152.792648 
	C350.032410,151.079605 345.263123,148.606277 340.343567,148.258560 
	C335.349701,147.905609 330.207550,149.650528 325.034637,150.492249 
	C325.047516,150.577362 324.924438,149.764679 324.488281,148.160919 
	C319.735840,148.160919 314.983429,148.160919 309.987610,148.160919 
	C309.987610,164.787018 309.936432,181.038742 310.095886,197.288391 
	C310.107269,198.444901 311.621613,200.530441 312.510773,200.571060 
	C316.339294,200.745941 320.195343,200.318634 324.825378,199.694305 
	C324.886230,197.540314 324.942963,195.386215 325.008606,193.232361 
	C325.264343,184.844803 325.522980,176.457306 325.958313,167.314026 
	C326.768524,162.347824 329.600372,159.690887 334.718658,160.010269 
	C339.063049,160.281372 342.798096,161.549438 343.134247,167.504868 
	C343.450195,167.826233 343.766144,168.147583 343.982422,168.593781 
	C343.982422,168.593781 344.106323,168.694641 343.319214,169.176880 
	C343.213562,178.855667 343.082458,188.534409 343.071930,198.213287 
	C343.071350,198.738602 344.079742,199.264999 345.145874,200.535583 
	C347.447937,200.683105 349.749176,200.940063 352.052216,200.957703 
	C359.023895,201.011108 358.925903,200.973282 359.047180,193.908356 
	C359.205811,184.666992 359.539093,175.428619 359.982697,165.458557 
	C364.395203,158.400742 371.162201,157.864517 377.081055,165.019974 
	C377.052643,175.556122 376.978119,186.092651 377.064667,196.627853 
	C377.073639,197.723358 378.038330,198.811020 378.500549,199.910034 
	C378.500549,199.910034 378.511566,199.968536 379.161102,200.616409 
	C383.432831,200.446838 387.704590,200.277252 392.765442,199.696381 
M587.611755,150.125702 
	C596.459778,167.508514 605.307800,184.891312 614.155884,202.274124 
	C614.676514,202.256927 615.197205,202.239731 615.717896,202.222519 
	C624.798584,184.608261 633.879272,166.994003 643.143005,149.024673 
	C638.071045,149.024673 633.719116,148.695480 629.458801,149.176895 
	C627.596863,149.387314 625.175598,150.845108 624.294556,152.444809 
	C620.847046,158.704147 617.913025,165.246307 614.435486,172.409912 
	C613.064636,168.976990 611.976318,166.278290 610.908081,163.571655 
	C605.154541,148.993835 604.672485,148.670837 588.970581,149.058487 
	C588.309509,149.074814 587.651123,149.201355 586.316528,148.991837 
	C582.545532,149.002792 578.755188,149.255020 575.008972,148.955627 
	C571.393738,148.666748 569.253113,149.961853 567.847107,153.274918 
	C565.875671,157.920609 563.688843,162.482742 561.395325,166.979233 
	C560.717896,168.307449 559.369690,169.293533 558.183533,170.595947 
	C554.726318,163.541779 551.797974,157.355453 548.625305,151.297073 
	C548.084351,150.264008 546.528625,149.202896 545.388550,149.141479 
	C540.833862,148.896133 536.258240,149.040237 531.084900,149.040237 
	C540.491028,167.192902 549.570496,184.715240 558.974548,202.863876 
	C560.498230,201.133957 561.346619,200.487015 561.778992,199.630142 
	C565.558594,192.139618 569.219849,184.589401 573.002319,177.100372 
	C577.622437,167.952972 582.325623,158.847549 587.611755,150.125702 
M473.989990,160.907700 
	C473.994629,169.537766 473.947754,178.168457 474.053009,186.797302 
	C474.071228,188.291061 474.733490,189.776962 475.017792,192.024994 
	C474.782745,195.788620 476.672638,198.869476 479.903900,199.742416 
	C484.883362,201.087631 490.157227,201.503052 495.336578,201.825714 
	C496.503998,201.898453 498.679230,200.101990 498.861420,198.928543 
	C499.356323,195.741577 499.031281,192.427277 499.031281,189.204361 
	C489.955170,188.819214 489.978699,188.819366 490.034119,180.245697 
	C490.074341,174.017014 490.041962,167.787857 490.041962,161.443329 
	C500.391205,159.834305 500.614990,159.815842 499.906525,151.230194 
	C499.276581,143.596298 492.753021,149.277206 489.562042,147.025299 
	C489.718536,143.880676 490.127563,140.667633 489.908875,137.497894 
	C489.825867,136.294525 488.372620,134.276230 487.416199,134.198410 
	C483.036469,133.841980 478.611481,134.041702 473.908875,134.041702 
	C473.908875,138.692947 473.908875,142.645050 473.908875,146.966873 
	C468.245209,146.068176 467.584198,149.316101 468.022461,153.488312 
	C468.108826,154.310379 468.003479,155.150696 468.041779,155.980026 
	C468.243866,160.358124 469.579742,161.282043 473.989990,160.907700 
M129.561172,250.115280 
	C132.458450,248.541351 135.374802,247.001404 138.249756,245.387680 
	C151.477295,237.963074 164.844543,230.770615 177.855255,222.982956 
	C185.371109,218.484299 194.388214,216.248276 200.058273,208.790924 
	C200.523956,208.178436 201.853500,208.210602 202.788452,207.969696 
	C204.510193,207.526108 206.421036,207.439362 207.931534,206.614853 
	C217.047043,201.638885 226.020767,196.402527 235.150772,191.454117 
	C238.885925,189.429733 239.878525,186.711365 238.505707,182.879547 
	C236.970215,178.593582 238.060028,174.564774 241.679535,172.412811 
	C245.562088,170.104462 245.271713,167.918350 243.466278,164.746460 
	C237.781616,154.759201 231.745102,144.941132 226.670883,134.650238 
	C224.019196,129.272369 220.454910,128.190781 215.524567,129.516083 
	C211.803345,130.516373 209.228928,129.463257 206.851898,126.335892 
	C207.415115,125.845978 207.836914,125.414658 208.320038,125.069038 
	C212.057373,122.395424 214.268097,119.684746 210.684921,114.968643 
	C208.129395,111.605110 207.936371,107.407875 210.767059,103.884338 
	C213.194946,100.862175 212.506638,98.744965 209.941849,96.302170 
	C200.914398,87.704079 192.015213,78.971390 183.059738,70.297630 
	C180.412766,67.733917 177.674149,67.453049 174.678711,69.827293 
	C170.800430,72.901291 166.781662,72.617165 162.675522,70.152763 
	C159.730453,68.385193 156.810043,68.103981 154.300903,70.995659 
	C151.710281,73.981201 149.362762,77.207809 146.554794,79.968849 
	C139.046387,87.351776 133.008469,96.007950 125.155800,103.174530 
	C115.679298,111.823090 107.357086,121.731888 98.468323,131.031235 
	C94.955879,134.705917 91.261765,138.206894 87.652939,141.789551 
	C81.319366,148.077225 75.266670,154.683670 68.580200,160.570343 
	C61.285847,166.992188 60.573185,169.775421 64.772354,178.214752 
	C65.698845,180.076782 64.803047,183.108704 64.135536,185.425949 
	C63.480991,187.698151 62.048080,189.746140 60.980091,191.846680 
	C66.565239,196.862122 71.674469,201.450165 75.598717,204.974121 
	C75.133568,209.126526 73.545486,212.740326 74.678261,214.974792 
	C80.320709,226.104950 86.712433,236.853699 92.764503,247.778748 
	C94.609146,251.108627 96.727631,252.148193 100.736687,251.001175 
	C103.320290,250.261978 107.882324,250.592377 109.182457,252.276794 
	C113.596214,257.995087 117.874512,256.810425 122.842094,253.773682 
	C124.806747,252.572662 126.945938,251.657120 129.561172,250.115280 
M416.506989,197.129364 
	C423.134460,201.329971 430.371124,202.520203 437.950470,200.933777 
	C451.710663,198.053635 462.651642,185.891296 460.727051,171.683533 
	C459.191711,160.348938 452.029541,152.352173 440.874023,149.003571 
	C430.045929,145.753235 419.439453,147.421524 411.354736,155.365784 
	C399.590790,166.925385 401.450043,187.253418 416.506989,197.129364 
M523.516968,141.012085 
	C527.002502,136.145523 526.681519,133.298004 522.251770,129.788269 
	C518.501587,126.816940 513.184509,127.525322 510.084320,131.409317 
	C507.892670,134.155060 508.822174,139.136383 512.410156,141.777084 
	C515.835144,144.297836 519.510071,143.881821 523.516968,141.012085 
M525.015198,166.500504 
	C525.015198,160.403961 525.015198,154.307404 525.015198,148.254959 
	C519.730286,148.254959 514.990051,148.254959 509.996735,148.254959 
	C509.996735,162.632874 509.901794,176.756729 510.026489,190.878647 
	C510.127960,202.371017 507.833862,200.719101 520.460388,201.005997 
	C523.869446,201.083466 525.169312,200.059509 525.088806,196.468002 
	C524.872559,186.816406 525.015076,177.156799 525.015198,166.500504 
z"/>
<path fill="#153282" opacity="1.000000" stroke="none" 
	d="
M129.283417,250.363434 
	C126.945938,251.657120 124.806747,252.572662 122.842094,253.773682 
	C117.874512,256.810425 113.596214,257.995087 109.182457,252.276794 
	C107.882324,250.592377 103.320290,250.261978 100.736687,251.001175 
	C96.727631,252.148193 94.609146,251.108627 92.764503,247.778748 
	C86.712433,236.853699 80.320709,226.104950 74.678261,214.974792 
	C73.545486,212.740326 75.133568,209.126526 75.598717,204.974121 
	C71.674469,201.450165 66.565239,196.862122 60.980091,191.846680 
	C62.048080,189.746140 63.480991,187.698151 64.135536,185.425949 
	C64.803047,183.108704 65.698845,180.076782 64.772354,178.214752 
	C60.573185,169.775421 61.285847,166.992188 68.580200,160.570343 
	C75.266670,154.683670 81.319366,148.077225 87.652939,141.789551 
	C91.261765,138.206894 94.955879,134.705917 98.468323,131.031235 
	C107.357086,121.731888 115.679298,111.823090 125.155800,103.174530 
	C133.008469,96.007950 139.046387,87.351776 146.554794,79.968849 
	C149.362762,77.207809 151.710281,73.981201 154.300903,70.995659 
	C156.810043,68.103981 159.730453,68.385193 162.675522,70.152763 
	C166.781662,72.617165 170.800430,72.901291 174.678711,69.827293 
	C177.674149,67.453049 180.412766,67.733917 183.059738,70.297630 
	C192.015213,78.971390 200.914398,87.704079 209.941849,96.302170 
	C212.506638,98.744965 213.194946,100.862175 210.767059,103.884338 
	C207.936371,107.407875 208.129395,111.605110 210.684921,114.968643 
	C214.268097,119.684746 212.057373,122.395424 208.320038,125.069038 
	C207.836914,125.414658 207.415115,125.845978 206.851898,126.335892 
	C209.228928,129.463257 211.803345,130.516373 215.524567,129.516083 
	C220.454910,128.190781 224.019196,129.272369 226.670883,134.650238 
	C231.745102,144.941132 237.781616,154.759201 243.466278,164.746460 
	C245.271713,167.918350 245.562088,170.104462 241.679535,172.412811 
	C238.060028,174.564774 236.970215,178.593582 238.505707,182.879547 
	C239.878525,186.711365 238.885925,189.429733 235.150772,191.454117 
	C226.020767,196.402527 217.047043,201.638885 207.931534,206.614853 
	C206.421036,207.439362 204.510193,207.526108 202.788452,207.969696 
	C201.853500,208.210602 200.523956,208.178436 200.058273,208.790924 
	C194.388214,216.248276 185.371109,218.484299 177.855255,222.982956 
	C164.844543,230.770615 151.477295,237.963074 138.249756,245.387680 
	C135.374802,247.001404 132.458450,248.541351 129.283417,250.363434 
M107.898544,160.372726 
	C109.887390,158.449814 111.967720,156.611877 113.847931,154.588058 
	C119.504684,148.499252 125.083496,142.338043 130.696671,136.200760 
	C128.167007,132.449814 124.746407,132.717194 121.680489,136.805832 
	C119.916107,139.158768 118.101120,141.502975 116.068916,143.620834 
	C106.996849,153.075409 97.828979,162.437988 88.717537,171.854904 
	C86.402176,174.247894 86.272453,176.597168 89.155968,179.199432 
	C92.046661,176.669250 94.895775,174.467804 97.391579,171.920212 
	C100.864807,168.374908 104.073448,164.570389 107.898544,160.372726 
M160.570648,207.968155 
	C162.447464,206.988586 164.592392,206.306412 166.114853,204.933792 
	C167.297455,203.867584 167.703491,201.940018 168.454681,200.395309 
	C166.813370,200.244415 164.803955,199.401047 163.586823,200.048080 
	C148.906067,207.852371 134.287689,215.780121 119.814461,223.961288 
	C117.911705,225.036835 116.907661,227.702316 115.487381,229.631424 
	C118.039886,229.411133 120.995209,229.950562 123.078758,228.845825 
	C135.497162,222.261292 147.714249,215.297073 160.570648,207.968155 
M133.340775,191.845078 
	C140.975571,187.536835 148.610367,183.228592 156.248688,178.918365 
	C154.469864,175.330704 152.880585,174.374725 149.934647,176.093048 
	C143.420547,179.892609 136.766220,183.453583 130.141449,187.061096 
	C121.905472,191.546036 113.609619,195.922012 105.406631,200.466003 
	C102.417038,202.122070 100.293961,204.296265 103.883011,208.199509 
	C113.441284,202.856110 123.047195,197.486069 133.340775,191.845078 
M132.537064,201.033524 
	C125.693939,204.865662 118.934738,208.860367 111.969734,212.456436 
	C108.825974,214.079590 108.550049,215.949600 110.015060,219.296127 
	C112.033813,218.516205 113.916618,218.015228 115.579971,217.110703 
	C130.161743,209.181274 144.736481,201.236984 159.205627,193.105530 
	C160.554840,192.347290 161.162064,190.268814 162.113785,188.803314 
	C160.084854,188.571533 157.638168,187.491760 156.097366,188.250824 
	C148.303314,192.090485 140.744827,196.408249 132.537064,201.033524 
M140.235229,146.207764 
	C139.278214,144.740677 138.321213,143.273605 136.647537,140.707870 
	C130.484116,147.262283 125.042343,153.038956 119.613289,158.827545 
	C117.297501,161.296692 117.407532,163.622925 121.721558,167.751724 
	C127.936897,160.653015 133.981949,153.748810 140.235229,146.207764 
M201.026245,164.285995 
	C201.572906,167.787521 203.291473,170.370407 207.137817,169.776581 
	C210.745850,169.219559 214.447922,166.997650 213.547089,163.140274 
	C212.979721,160.710800 209.425735,157.833725 206.786667,157.313751 
	C203.232727,156.613541 200.817017,159.387054 201.026245,164.285995 
M170.713852,110.779434 
	C172.113129,111.141472 173.846695,112.202873 174.844849,111.725754 
	C177.213348,110.593590 179.480804,108.958595 181.245392,107.029488 
	C181.784882,106.439705 180.894623,103.998055 180.072006,102.811501 
	C177.872223,99.638542 174.717773,98.910049 171.503799,101.058777 
	C167.920944,103.454117 168.510086,106.824554 170.713852,110.779434 
M181.375061,172.794327 
	C181.781662,171.676987 182.858414,170.182953 182.478775,169.507599 
	C180.842133,166.596039 178.778519,163.924469 176.709351,160.932755 
	C175.207855,162.513779 174.195511,163.579742 173.052139,164.783691 
	C174.162827,167.059875 174.946564,169.494522 176.430038,171.378067 
	C177.246597,172.414856 179.239899,172.524826 181.375061,172.794327 
M144.584396,118.820847 
	C145.979172,120.230316 147.193481,121.936562 148.837479,122.936119 
	C149.798645,123.520508 151.603424,123.311455 152.713409,122.789230 
	C153.216782,122.552391 153.416855,120.416321 152.947159,119.615097 
	C151.809158,117.673813 150.389664,115.785995 148.693512,114.331566 
	C147.872971,113.627960 145.371338,113.410957 145.035095,113.913391 
	C144.257660,115.075096 144.336594,116.809898 144.584396,118.820847 
M167.965286,136.907578 
	C167.788864,135.599670 168.076416,133.871902 167.346298,133.065048 
	C165.401413,130.915802 163.058167,129.108658 160.708344,127.391174 
	C160.571320,127.291016 158.276398,129.127350 158.178268,130.174301 
	C157.841415,133.767883 163.380920,137.826340 167.965286,136.907578 
M189.407028,191.761917 
	C190.501633,190.377243 191.596252,188.992584 192.690842,187.607895 
	C189.791107,185.514023 189.979660,179.621872 184.530106,180.239166 
	C183.096115,185.556198 185.957748,188.622894 189.407028,191.761917 
z"/>
<path fill="#305DE7" opacity="1.000000" stroke="none" 
	d="
M343.204010,166.831985 
	C342.798096,161.549438 339.063049,160.281372 334.718658,160.010269 
	C329.600372,159.690887 326.768524,162.347824 325.551361,167.884186 
	C324.759277,170.331558 324.073639,172.203552 324.040894,174.086899 
	C323.897461,182.336548 323.943146,190.589493 323.471130,198.924225 
	C319.353027,198.998016 315.683929,198.988815 312.012756,198.512650 
	C312.031921,181.708435 312.053162,165.371201 312.529175,148.990753 
	C316.923126,148.949036 320.862244,148.950516 324.801361,148.951996 
	C324.924438,149.764679 325.047516,150.577362 325.034637,150.492249 
	C330.207550,149.650528 335.349701,147.905609 340.343567,148.258560 
	C345.263123,148.606277 350.032410,151.079605 355.408508,152.792648 
	C363.301453,144.418625 381.355164,146.440903 389.549133,155.184097 
	C391.219788,156.966751 391.191040,160.342056 391.878937,163.855560 
	C391.818665,176.099579 391.825195,187.471252 391.383301,198.878403 
	C387.295410,198.895248 383.655914,198.876587 380.012756,198.398193 
	C380.005066,189.374390 380.094299,180.808441 379.920074,172.247833 
	C379.884216,170.486786 378.864899,168.745773 378.183594,166.695190 
	C377.737152,165.631287 377.406036,164.867722 377.074890,164.104156 
	C371.162201,157.864517 364.395203,158.400742 359.560455,165.983704 
	C358.727814,168.205154 358.009491,169.893143 357.963440,171.599258 
	C357.812195,177.204346 357.901611,182.816040 357.904510,188.425186 
	C357.909912,198.900757 357.911591,198.898254 347.687195,199.108139 
	C346.698181,199.128418 345.710327,199.204391 344.588928,198.826782 
	C344.339417,188.497574 344.222870,178.596100 344.106323,168.694641 
	C344.106323,168.694641 343.982422,168.593781 344.148438,168.320297 
	C343.944275,167.641876 343.574158,167.236923 343.204010,166.831985 
z"/>
<path fill="#345FE5" opacity="1.000000" stroke="none" 
	d="
M416.228149,196.880249 
	C401.450043,187.253418 399.590790,166.925385 411.354736,155.365784 
	C419.439453,147.421524 430.045929,145.753235 440.874023,149.003571 
	C452.029541,152.352173 459.191711,160.348938 460.727051,171.683533 
	C462.651642,185.891296 451.710663,198.053635 437.950470,200.933777 
	C430.371124,202.520203 423.134460,201.329971 416.228149,196.880249 
M442.057434,183.370773 
	C446.425690,177.857635 445.927765,167.824570 441.219330,163.701508 
	C436.267456,159.365341 426.377960,160.037323 422.062866,164.791489 
	C417.470093,169.851562 418.008453,180.633469 422.938324,185.460815 
	C427.473785,189.901917 436.623749,190.141617 442.057434,183.370773 
z"/>
<path fill="#3762E5" opacity="1.000000" stroke="none" 
	d="
M473.797424,159.984238 
	C469.579742,161.282043 468.243866,160.358124 468.041779,155.980026 
	C468.003479,155.150696 468.108826,154.310379 468.022461,153.488312 
	C467.584198,149.316101 468.245209,146.068176 473.908875,146.966873 
	C473.908875,142.645050 473.908875,138.692947 473.908875,134.041702 
	C478.611481,134.041702 483.036469,133.841980 487.416199,134.198410 
	C488.372620,134.276230 489.825867,136.294525 489.908875,137.497894 
	C490.127563,140.667633 489.718536,143.880676 489.562042,147.025299 
	C492.753021,149.277206 499.276581,143.596298 499.906525,151.230194 
	C500.614990,159.815842 500.391205,159.834305 490.041962,161.443329 
	C490.041962,167.787857 490.074341,174.017014 490.034119,180.245697 
	C489.978699,188.819366 489.955170,188.819214 499.031281,189.204361 
	C499.031281,192.427277 499.356323,195.741577 498.861420,198.928543 
	C498.679230,200.101990 496.503998,201.898453 495.336578,201.825714 
	C490.157227,201.503052 484.883362,201.087631 479.903900,199.742416 
	C476.672638,198.869476 474.782745,195.788620 475.102539,191.158264 
	C475.153839,181.634583 475.178741,172.976654 475.029846,164.321701 
	C475.004852,162.869247 474.227264,161.429733 473.797424,159.984238 
z"/>
<path fill="#3761E4" opacity="1.000000" stroke="none" 
	d="
M586.991516,149.276550 
	C587.651123,149.201355 588.309509,149.074814 588.970581,149.058487 
	C604.672485,148.670837 605.154541,148.993835 610.908081,163.571655 
	C611.976318,166.278290 613.064636,168.976990 614.435486,172.409912 
	C617.913025,165.246307 620.847046,158.704147 624.294556,152.444809 
	C625.175598,150.845108 627.596863,149.387314 629.458801,149.176895 
	C633.719116,148.695480 638.071045,149.024673 643.143005,149.024673 
	C633.879272,166.994003 624.798584,184.608261 615.717896,202.222519 
	C615.197205,202.239731 614.676514,202.256927 614.155884,202.274124 
	C605.307800,184.891312 596.459778,167.508514 587.302917,149.812988 
	C586.994080,149.500275 586.991516,149.276550 586.991516,149.276550 
z"/>
<path fill="#3560E4" opacity="1.000000" stroke="none" 
	d="
M586.654053,149.134186 
	C586.991516,149.276550 586.994080,149.500275 586.993530,149.612122 
	C582.325623,158.847549 577.622437,167.952972 573.002319,177.100372 
	C569.219849,184.589401 565.558594,192.139618 561.778992,199.630142 
	C561.346619,200.487015 560.498230,201.133957 558.974548,202.863876 
	C549.570496,184.715240 540.491028,167.192902 531.084900,149.040237 
	C536.258240,149.040237 540.833862,148.896133 545.388550,149.141479 
	C546.528625,149.202896 548.084351,150.264008 548.625305,151.297073 
	C551.797974,157.355453 554.726318,163.541779 558.183533,170.595947 
	C559.369690,169.293533 560.717896,168.307449 561.395325,166.979233 
	C563.688843,162.482742 565.875671,157.920609 567.847107,153.274918 
	C569.253113,149.961853 571.393738,148.666748 575.008972,148.955627 
	C578.755188,149.255020 582.545532,149.002792 586.654053,149.134186 
z"/>
<path fill="#3C64E1" opacity="1.000000" stroke="none" 
	d="
M523.262878,141.307617 
	C519.510071,143.881821 515.835144,144.297836 512.410156,141.777084 
	C508.822174,139.136383 507.892670,134.155060 510.084320,131.409317 
	C513.184509,127.525322 518.501587,126.816940 522.251770,129.788269 
	C526.681519,133.298004 527.002502,136.145523 523.262878,141.307617 
z"/>
<path fill="#95ACE2" opacity="1.000000" stroke="none" 
	d="
M525.015198,167.000427 
	C525.015076,177.156799 524.872559,186.816406 525.088806,196.468002 
	C525.169312,200.059509 523.869446,201.083466 520.460388,201.005997 
	C507.833862,200.719101 510.127960,202.371017 510.026489,190.878647 
	C509.901794,176.756729 509.996735,162.632874 509.996735,148.254959 
	C514.990051,148.254959 519.730286,148.254959 525.015198,148.254959 
	C525.015198,154.307404 525.015198,160.403961 525.015198,167.000427 
M523.585022,198.383469 
	C523.585022,182.128922 523.585022,165.874390 523.585022,149.298340 
	C519.393250,149.298340 515.505249,149.298340 511.368622,149.298340 
	C511.220184,150.346420 511.011536,151.137695 511.010345,151.929306 
	C510.988251,166.583466 510.970062,181.237747 511.032318,195.891663 
	C511.036774,196.941620 511.667969,197.988937 512.918823,199.123947 
	C516.269226,199.064346 519.619690,199.004745 523.585022,198.383469 
z"/>
<path fill="#8CA5DE" opacity="1.000000" stroke="none" 
	d="
M312.014862,198.979614 
	C315.683929,198.988815 319.353027,198.998016 323.499359,199.241867 
	C323.998169,199.687881 324.019745,199.899246 324.041351,200.110626 
	C320.195343,200.318634 316.339294,200.745941 312.510773,200.571060 
	C311.621613,200.530441 310.107269,198.444901 310.095886,197.288391 
	C309.936432,181.038742 309.987610,164.787018 309.987610,148.160919 
	C314.983429,148.160919 319.735840,148.160919 324.644836,148.556458 
	C320.862244,148.950516 316.923126,148.949036 312.188629,149.245193 
	C311.303436,165.462357 311.204468,181.381836 311.161713,197.301483 
	C311.160217,197.860092 311.717834,198.420197 312.014862,198.979614 
z"/>
<path fill="#3058D7" opacity="1.000000" stroke="none" 
	d="
M378.298889,166.995529 
	C378.864899,168.745773 379.884216,170.486786 379.920074,172.247833 
	C380.094299,180.808441 380.005066,189.374390 379.720490,198.534622 
	C379.125061,199.410034 378.818298,199.689270 378.511536,199.968536 
	C378.511566,199.968536 378.500549,199.910034 378.468109,199.444733 
	C378.390076,188.318146 378.344482,177.656830 378.298889,166.995529 
z"/>
<path fill="#879FE3" opacity="1.000000" stroke="none" 
	d="
M344.721924,199.254517 
	C345.710327,199.204391 346.698181,199.128418 347.687195,199.108139 
	C357.911591,198.898254 357.909912,198.900757 357.904510,188.425186 
	C357.901611,182.816040 357.812195,177.204346 357.963440,171.599258 
	C358.009491,169.893143 358.727814,168.205154 359.467712,166.348907 
	C359.539093,175.428619 359.205811,184.666992 359.047180,193.908356 
	C358.925903,200.973282 359.023895,201.011108 352.052216,200.957703 
	C349.749176,200.940063 347.447937,200.683105 344.845673,200.017838 
	C344.545471,199.500092 344.721924,199.254517 344.721924,199.254517 
z"/>
<path fill="#F4F9FF" opacity="1.000000" stroke="none" 
	d="
M344.588928,198.826782 
	C344.721924,199.254517 344.545471,199.500092 344.581970,199.645493 
	C344.079742,199.264999 343.071350,198.738602 343.071930,198.213287 
	C343.082458,188.534409 343.213562,178.855667 343.712769,168.935760 
	C344.222870,178.596100 344.339417,188.497574 344.588928,198.826782 
z"/>
<path fill="#DFECFE" opacity="1.000000" stroke="none" 
	d="
M378.183594,166.695190 
	C378.344482,177.656830 378.390076,188.318146 378.497620,199.440887 
	C378.038330,198.811020 377.073639,197.723358 377.064667,196.627853 
	C376.978119,186.092651 377.052643,175.556122 377.078003,164.562073 
	C377.406036,164.867722 377.737152,165.631287 378.183594,166.695190 
z"/>
<path fill="#B7CCFE" opacity="1.000000" stroke="none" 
	d="
M391.831696,198.842911 
	C391.825195,187.471252 391.818665,176.099579 391.808228,164.235611 
	C392.213531,164.525314 392.979218,165.307648 392.978485,166.089264 
	C392.968079,177.291702 392.854340,188.494019 392.339844,199.585114 
	C391.886749,199.263519 391.859222,199.053223 391.831696,198.842911 
z"/>
<path fill="#97AFEB" opacity="1.000000" stroke="none" 
	d="
M324.433350,199.902466 
	C324.019745,199.899246 323.998169,199.687881 323.948425,199.158875 
	C323.943146,190.589493 323.897461,182.336548 324.040894,174.086899 
	C324.073639,172.203552 324.759277,170.331558 325.462463,168.262054 
	C325.522980,176.457306 325.264343,184.844803 325.008606,193.232361 
	C324.942963,195.386215 324.886230,197.540314 324.433350,199.902466 
z"/>
<path fill="#DFECFE" opacity="1.000000" stroke="none" 
	d="
M473.893707,160.445969 
	C474.227264,161.429733 475.004852,162.869247 475.029846,164.321701 
	C475.178741,172.976654 475.153839,181.634583 475.142761,190.779007 
	C474.733490,189.776962 474.071228,188.291061 474.053009,186.797302 
	C473.947754,178.168457 473.994629,169.537766 473.893707,160.445969 
z"/>
<path fill="#6D8CE6" opacity="1.000000" stroke="none" 
	d="
M391.383301,198.878403 
	C391.859222,199.053223 391.886749,199.263519 391.945312,199.790741 
	C387.704590,200.277252 383.432831,200.446838 378.836304,200.292465 
	C378.818298,199.689270 379.125061,199.410034 379.724121,198.994370 
	C383.655914,198.876587 387.295410,198.895248 391.383301,198.878403 
z"/>
<path fill="#879FE3" opacity="1.000000" stroke="none" 
	d="
M343.169128,167.168427 
	C343.574158,167.236923 343.944275,167.641876 344.198242,168.257874 
	C343.766144,168.147583 343.450195,167.826233 343.169128,167.168427 
z"/>
<path fill="#000000" opacity="1.000000" stroke="none" 
	d="
M107.646942,160.624771 
	C104.073448,164.570389 100.864807,168.374908 97.391579,171.920212 
	C94.895775,174.467804 92.046661,176.669250 89.155968,179.199432 
	C86.272453,176.597168 86.402176,174.247894 88.717537,171.854904 
	C97.828979,162.437988 106.996849,153.075409 116.068916,143.620834 
	C118.101120,141.502975 119.916107,139.158768 121.680489,136.805832 
	C124.746407,132.717194 128.167007,132.449814 130.696671,136.200760 
	C125.083496,142.338043 119.504684,148.499252 113.847931,154.588058 
	C111.967720,156.611877 109.887390,158.449814 107.646942,160.624771 
z"/>
<path fill="#000000" opacity="1.000000" stroke="none" 
	d="
M160.284790,208.214233 
	C147.714249,215.297073 135.497162,222.261292 123.078758,228.845825 
	C120.995209,229.950562 118.039886,229.411133 115.487381,229.631409 
	C116.907661,227.702316 117.911705,225.036835 119.814461,223.961288 
	C134.287689,215.780121 148.906067,207.852371 163.586823,200.048080 
	C164.803955,199.401047 166.813370,200.244415 168.454681,200.395309 
	C167.703491,201.940018 167.297455,203.867584 166.114853,204.933792 
	C164.592392,206.306412 162.447464,206.988586 160.284790,208.214233 
z"/>
<path fill="#000000" opacity="1.000000" stroke="none" 
	d="
M132.996948,191.980560 
	C123.047195,197.486069 113.441284,202.856110 103.883011,208.199509 
	C100.293961,204.296265 102.417038,202.122070 105.406631,200.466003 
	C113.609619,195.922012 121.905472,191.546036 130.141449,187.061096 
	C136.766220,183.453583 143.420547,179.892609 149.934647,176.093048 
	C152.880585,174.374725 154.469864,175.330704 156.248688,178.918365 
	C148.610367,183.228592 140.975571,187.536835 132.996948,191.980560 
z"/>
<path fill="#000000" opacity="1.000000" stroke="none" 
	d="
M132.820404,200.795959 
	C140.744827,196.408249 148.303314,192.090485 156.097366,188.250824 
	C157.638168,187.491760 160.084854,188.571533 162.113800,188.803314 
	C161.162064,190.268814 160.554840,192.347290 159.205627,193.105530 
	C144.736481,201.236984 130.161743,209.181274 115.579971,217.110703 
	C113.916618,218.015228 112.033813,218.516205 110.015060,219.296127 
	C108.550049,215.949600 108.825974,214.079590 111.969734,212.456436 
	C118.934738,208.860367 125.693939,204.865662 132.820404,200.795959 
z"/>
<path fill="#000000" opacity="1.000000" stroke="none" 
	d="
M140.131104,146.526184 
	C133.981949,153.748810 127.936897,160.653015 121.721558,167.751724 
	C117.407532,163.622925 117.297501,161.296692 119.613289,158.827545 
	C125.042343,153.038956 130.484116,147.262283 136.647537,140.707870 
	C138.321213,143.273605 139.278214,144.740677 140.131104,146.526184 
z"/>
<path fill="#000000" opacity="1.000000" stroke="none" 
	d="
M201.022308,163.879669 
	C200.817017,159.387054 203.232727,156.613541 206.786667,157.313751 
	C209.425735,157.833725 212.979721,160.710800 213.547089,163.140274 
	C214.447922,166.997650 210.745850,169.219559 207.137817,169.776581 
	C203.291473,170.370407 201.572906,167.787521 201.022308,163.879669 
z"/>
<path fill="#000000" opacity="1.000000" stroke="none" 
	d="
M170.451569,110.477264 
	C168.510086,106.824554 167.920944,103.454117 171.503799,101.058777 
	C174.717773,98.910049 177.872223,99.638542 180.072006,102.811501 
	C180.894623,103.998055 181.784882,106.439705 181.245392,107.029488 
	C179.480804,108.958595 177.213348,110.593590 174.844849,111.725754 
	C173.846695,112.202873 172.113129,111.141472 170.451569,110.477264 
z"/>
<path fill="#000000" opacity="1.000000" stroke="none" 
	d="
M181.038864,172.923492 
	C179.239899,172.524826 177.246597,172.414856 176.430038,171.378067 
	C174.946564,169.494522 174.162827,167.059875 173.052139,164.783691 
	C174.195511,163.579742 175.207855,162.513779 176.709351,160.932755 
	C178.778519,163.924469 180.842133,166.596039 182.478775,169.507599 
	C182.858414,170.182953 181.781662,171.676987 181.038864,172.923492 
z"/>
<path fill="#000000" opacity="1.000000" stroke="none" 
	d="
M144.326324,118.566566 
	C144.336594,116.809898 144.257660,115.075096 145.035095,113.913391 
	C145.371338,113.410957 147.872971,113.627960 148.693512,114.331566 
	C150.389664,115.785995 151.809158,117.673813 152.947159,119.615097 
	C153.416855,120.416321 153.216782,122.552391 152.713409,122.789230 
	C151.603424,123.311455 149.798645,123.520508 148.837479,122.936119 
	C147.193481,121.936562 145.979172,120.230316 144.326324,118.566566 
z"/>
<path fill="#000000" opacity="1.000000" stroke="none" 
	d="
M167.653946,137.050903 
	C163.380920,137.826340 157.841415,133.767883 158.178268,130.174301 
	C158.276398,129.127350 160.571320,127.291016 160.708344,127.391174 
	C163.058167,129.108658 165.401413,130.915802 167.346298,133.065048 
	C168.076416,133.871902 167.788864,135.599670 167.653946,137.050903 
z"/>
<path fill="#000000" opacity="1.000000" stroke="none" 
	d="
M189.047546,191.751740 
	C185.957748,188.622894 183.096115,185.556198 184.530106,180.239166 
	C189.979660,179.621872 189.791107,185.514023 192.690857,187.607910 
	C191.596252,188.992584 190.501633,190.377243 189.047546,191.751740 
z"/>
<path fill="#2F52C7" opacity="1.000000" stroke="none" 
	d="
M312.012756,198.512634 
	C311.717834,198.420197 311.160217,197.860092 311.161713,197.301483 
	C311.204468,181.381836 311.303436,165.462357 311.733826,149.288391 
	C312.053162,165.371201 312.031921,181.708435 312.012756,198.512634 
z"/>
<path fill="#000000" opacity="1.000000" stroke="none" 
	d="
M441.797302,183.651108 
	C436.623749,190.141617 427.473785,189.901917 422.938324,185.460815 
	C418.008453,180.633469 417.470093,169.851562 422.062866,164.791489 
	C426.377960,160.037323 436.267456,159.365341 441.219330,163.701508 
	C445.927765,167.824570 446.425690,177.857635 441.797302,183.651108 
z"/>
<path fill="#2D5CEB" opacity="1.000000" stroke="none" 
	d="
M522.970093,198.945160 
	C519.619690,199.004745 516.269226,199.064346 512.461060,198.608719 
	C512.000183,183.992905 512.115601,169.890686 511.920319,155.792770 
	C511.863037,151.657501 512.837524,149.825073 517.424255,149.851746 
	C521.831909,149.877396 523.143738,151.336578 523.076599,155.649429 
	C522.851929,170.078400 522.978210,184.512817 522.970093,198.945160 
z"/>
<path fill="#3058D7" opacity="1.000000" stroke="none" 
	d="
M523.277588,198.664307 
	C522.978210,184.512817 522.851929,170.078400 523.076599,155.649429 
	C523.143738,151.336578 521.831909,149.877396 517.424255,149.851746 
	C512.837524,149.825073 511.863037,151.657501 511.920319,155.792770 
	C512.115601,169.890686 512.000183,183.992905 512.005554,198.565491 
	C511.667969,197.988937 511.036774,196.941620 511.032318,195.891663 
	C510.970062,181.237747 510.988251,166.583466 511.010345,151.929306 
	C511.011536,151.137695 511.220184,150.346420 511.368622,149.298340 
	C515.505249,149.298340 519.393250,149.298340 523.585022,149.298340 
	C523.585022,165.874390 523.585022,182.128922 523.277588,198.664307 
z"/>
</svg>